<svg xmlns="http://www.w3.org/2000/svg" fill="none" viewBox="-1 -1 32 32" id="Diagnostic-Desktop--Streamline-Ultimate" height="32" width="32">
  <desc>
    Diagnostic Desktop Streamline Icon: https://streamlinehq.com
  </desc>
  <path stroke="#ffffff" stroke-linecap="round" stroke-linejoin="round" d="M28.654625 16.654249999999998v5.940125c0 0.580125 -0.47024999999999995 1.050375 -1.050375 1.050375H2.3961625c-0.5800875 0 -1.0503375 -0.47024999999999995 -1.0503375 -1.050375V5.788950000000001c0 -0.580075 0.47024999999999995 -1.0503375 1.0503375 -1.0503375h4.7658875" stroke-width="2"></path>
  <path stroke="#ffffff" stroke-linecap="round" stroke-linejoin="round" d="m12.899624999999999 23.644750000000002 -2.100675 5.251625" stroke-width="2"></path>
  <path stroke="#ffffff" stroke-linecap="round" stroke-linejoin="round" d="m17.100875 23.644750000000002 2.100625 5.251625" stroke-width="2"></path>
  <path stroke="#ffffff" stroke-linecap="round" stroke-linejoin="round" d="M8.698125 28.896375h12.604" stroke-width="2"></path>
  <path stroke="#ffffff" stroke-linecap="round" stroke-linejoin="round" d="M18.0685 1.2547249999999999h1.1761249999999999c0.312 0 0.611125 0.12392500000000001 0.83175 0.34450000000000003 0.2205 0.22057500000000002 0.34450000000000003 0.51975 0.34450000000000003 0.8316875v3.2256625c0 1.247775 -0.49575 2.4444375 -1.3780000000000001 3.32675 -0.8823749999999999 0.8823124999999999 -2.079 1.3779875 -3.32675 1.3779875s-2.4445 -0.495675 -3.3267875 -1.3779875c-0.8823124999999999 -0.8823124999999999 -1.3779875 -2.0789750000000002 -1.3779875 -3.32675V2.4309125000000003c0 -0.3119375 0.12392500000000001 -0.6111125 0.34450000000000003 -0.8316875s0.51975 -0.34450000000000003 0.8316875 -0.34450000000000003h1.1762124999999999" stroke-width="2"></path>
  <path stroke="#ffffff" stroke-linecap="round" stroke-linejoin="round" d="M26.302 8.009025c1.2991249999999999 0 2.352375 -1.0531875 2.352375 -2.3523625 0 -1.299175 -1.05325 -2.352375 -2.352375 -2.352375 -1.2992500000000002 0 -2.352375 1.0532 -2.352375 2.352375s1.053125 2.3523625 2.352375 2.3523625Z" stroke-width="2"></path>
  <path stroke="#ffffff" stroke-linecap="round" stroke-linejoin="round" d="M15.716000000000001 10.3614v0.5881000000000001c0 1.4037374999999999 0.557625 2.75 1.550125 3.742625 0.9926250000000001 0.9926250000000001 2.338875 1.55025 3.742625 1.55025s2.75 -0.557625 3.742625 -1.55025c0.9926250000000001 -0.9926250000000001 1.55025 -2.3388875000000002 1.55025 -3.742625V8.0090375" stroke-width="2"></path>
</svg>